<?xml version="1.0" encoding="UTF-8" standalone="no"?>
<svg
   height="16"
   viewBox="0 0 16 16"
   width="16"
   version="1.1"
   id="svg89"
   xmlns="http://www.w3.org/2000/svg"
   xmlns:svg="http://www.w3.org/2000/svg">
  <path
     id="path2516"
     style="display:inline;fill:#2e3436"
     d="M 3,0 C 1.3398491,0 0,1.3398491 0,3 v 7 c 0,1.66015 1.3398491,3 3,3 H 5.3671875 C 5.1700613,12.397523 5.0625,11.756409 5.0625,11.091797 c 0,-0.03069 0.0015,-0.06121 0.00195,-0.0918 H 3 c -0.5546862,3e-6 -1,-0.445315 -1,-1 V 3 C 2,2.4453138 2.4453138,2 3,2 h 10 c 0.554685,0 1,0.4453138 1,1 v 2.5234375 c 0.769152,0.3810359 1.448837,0.917305 2,1.5664063 V 3 C 16,1.3398491 14.66015,0 13,0 Z m 8.271484,6.8828125 c -2.3205521,0 -4.208984,1.888432 -4.208984,4.2089845 0,2.320555 1.8884319,4.208984 4.208984,4.208984 2.320555,0 4.208985,-1.888429 4.208985,-4.208984 0,-2.3205525 -1.88843,-4.2089845 -4.208985,-4.2089845 z m 0,1.0527344 c 1.753263,0 3.158203,1.40299 3.158204,3.1562501 0,0.684451 -0.214113,1.318179 -0.582032,1.832031 L 9.4375,8.5175781 C 9.953407,8.1496601 10.587034,7.9355469 11.271484,7.9355469 Z M 8.6972656,9.2617188 13.105469,13.667969 C 12.589561,14.035887 11.955936,14.25 11.271484,14.25 c -1.7532608,0 -3.1562496,-1.404941 -3.1562496,-3.158203 0,-0.684449 0.2141132,-1.3162258 0.5820312,-1.8300782 z M 5,14 C 3.8945343,14 3,14.894534 3,16 H 7.4882812 C 6.7933589,15.461184 6.2129168,14.779268 5.7949219,14 Z" />
  <defs
     id="defs93" />
</svg>
